Coordinates
version=1
nRows=19
nColumns=24
inDegrees=yes

Units are S.I. units (second, meters, Newtons, ...)
Angles are in degrees.

endheader
time	pelvis_tilt	pelvis_list	pelvis_rotation	pelvis_tx	pelvis_ty	pelvis_tz	hip_flexion_r	hip_adduction_r	hip_rotation_r	knee_angle_r	ankle_angle_r	subtalar_angle_r	mtp_angle_r	hip_flexion_l	hip_adduction_l	hip_rotation_l	knee_angle_l	ankle_angle_l	subtalar_angle_l	mtp_angle_l	lumbar_extension	lumbar_bending	lumbar_rotation
      0.52900000	     -3.05187448	      1.73536991	     -3.61215362	     -0.78319162	      1.04181925	      0.29217634	     28.26187685	     -0.10817595	     -3.33931713	    -10.11753087	      7.91770942	      2.70616374	     14.44185954	     -9.29114232	      3.60399308	     -2.61522067	    -10.20882320	     21.64625413	     10.03655557	      4.35883388	     -9.25045737	     -1.67873984	     -2.83899973
      0.53316667	     -2.99497504	      1.70548707	     -3.52709073	     -0.77695465	      1.04097339	      0.29247572	     28.17215851	     -0.03113251	     -3.13318597	    -10.23520326	      7.84146987	      2.48079511	     14.43732900	     -9.40702934	      3.53210687	     -2.70456004	    -10.89943482	     21.85210142	     10.28518587	      4.41836382	     -9.28310337	     -1.61333668	     -2.85801116
      0.53733333	     -2.92613216	      1.66311489	     -3.44919201	     -0.77067690	      1.04018299	      0.29277928	     28.07313753	      0.05902061	     -2.91876606	    -10.44390913	      7.75696173	      2.22072256	     14.43833205	     -9.50901766	      3.43953289	     -2.86673105	    -11.65213387	     22.05077799	     10.61374354	      4.52213121	     -9.32793785	     -1.51453950	     -2.87936468
      0.54150000	     -2.84818030	      1.62147069	     -3.36320024	     -0.76439941	      1.03944665	      0.29308415	     27.96392305	      0.14550264	     -2.69016847	    -10.72232041	      7.64248335	      1.91019500	     14.44153689	     -9.58347137	      3.33839526	     -3.03804742	    -12.48190588	     22.23272537	     10.97405778	      4.66002399	     -9.37653320	     -1.41834051	     -2.89852811
      0.54566667	     -2.76030136	      1.56535772	     -3.27904296	     -0.75808441	      1.03876400	      0.29338958	     27.84152237	      0.24597206	     -2.45255301	    -11.06736736	      7.48983449	      1.55547568	     14.44747984	     -9.64776056	      3.21385585	     -3.24054851	    -13.36482896	     22.38882558	     11.37423058	      4.83525211	     -9.43765946	     -1.30170371	     -2.90898038
      0.54983333	     -2.69273585	      1.51270380	     -3.20654630	     -0.75174922	      1.03807019	      0.29372908	     27.75119150	      0.34941169	     -2.20826578	    -11.48944427	      7.29779513	      1.16328483	     14.45749061	     -9.65231034	      3.08077714	     -3.49696508	    -14.32916274	     22.52865113	     11.83880032	      5.07275613	     -9.46199123	     -1.18044022	     -2.91228067
      0.55400000	     -2.59859910	      1.44597590	     -3.11576314	     -0.74540511	      1.03747994	      0.29405635	     27.61723853	      0.45895711	     -1.95168392	    -11.93923740	      7.06809485	      0.72236129	     14.46541800	     -9.64649832	      2.91800845	     -3.76362097	    -15.37396686	     22.63071378	     12.32472424	      5.32655771	     -9.52682289	     -1.05024874	     -2.91519134
      0.55816667	     -2.53255069	      1.38661942	     -3.03918596	     -0.73903724	      1.03686707	      0.29441368	     27.52932675	      0.56787495	     -1.69742493	    -12.46691544	      6.80931759	      0.27200514	     14.47322630	     -9.58130407	      2.75115096	     -4.07666361	    -16.48048896	     22.69371429	     12.85811155	      5.63230535	     -9.54597029	     -0.91902129	     -2.90634601
      0.56233333	     -2.42315023	      1.30973475	     -2.95952626	     -0.73267089	      1.03636853	      0.29478379	     27.38564681	      0.69089951	     -1.44346223	    -13.01743754	      6.51899718	     -0.20836024	     14.47596234	     -9.53018539	      2.55136327	     -4.41773519	    -17.65642513	     22.72897338	     13.43167285	      5.96362155	     -9.62340467	     -0.77673725	     -2.89282469
      0.56650000	     -2.33868239	      1.23152151	     -2.88321364	     -0.72629946	      1.03587143	      0.29517346	     27.27791766	      0.81771798	     -1.19486944	    -13.62092681	      6.20257581	     -0.69140631	     14.47272373	     -9.41056082	      2.33514840	     -4.76935620	    -18.91571130	     22.70509840	     14.02638779	      6.34688037	     -9.66955563	     -0.62032010	     -2.87514361
      0.57066667	     -2.23578342	      1.15884607	     -2.80465413	     -0.71992431	      1.03543585	      0.29556747	     27.16581912	      0.93010305	     -1.01167593	    -14.28530942	      5.89978505	     -1.10238345	     14.44185857	     -9.28235227	      2.10992116	     -5.13544528	    -20.21630810	     22.54103523	     14.59388829	     10.29605491	     -9.73327026	     -0.48071803	     -2.78032632
      0.57483333	     -2.15590671	      1.08530813	     -2.73187719	     -0.71356676	      1.03501590	      0.29601601	     27.06598881	      1.05735396	     -0.74012700	    -14.94234964	      5.54678940	     -1.66314330	     14.42226310	     -9.08721325	      1.86896673	     -5.49989006	    -21.60730259	     22.40180696	     15.17005595	     10.38931303	     -9.76675841	     -0.33027213	     -2.82833870
      0.57900000	     -2.07070718	      1.00841365	     -2.65771475	     -0.70721967	      1.03462711	      0.29647928	     26.97405791	      1.18128952	     -0.52935510	    -15.64610462	      5.22371563	     -2.12930964	     14.39331599	     -8.85624096	      1.60285628	     -5.89592679	    -23.07634594	     22.21083631	     15.81689370	     10.54979404	     -9.81110520	     -0.18708537	     -2.78472179
      0.58316667	     -1.94054598	      0.91128985	     -2.58258893	     -0.70088394	      1.03437229	      0.29695573	     26.82527631	      1.32327119	     -0.32484678	    -16.35153964	      4.89814491	     -2.63000502	     14.32710332	     -8.64584049	      1.30178228	     -6.28631368	    -24.59194388	     21.92724711	     16.47271890	     10.92673241	     -9.92270201	     -0.01154076	     -2.74107174
      0.58733333	     -1.84446597	      0.82137758	     -2.50743014	     -0.69456572	      1.03409893	      0.29745778	     26.72120408	      1.45841473	     -0.13896335	    -17.08260595	      4.60208032	     -3.08692573	     14.23958216	     -8.35708180	      0.99103959	     -6.66410348	    -26.17869624	     21.56683660	     17.09307314	     11.39147208	     -9.98348012	      0.15018863	     -2.70061015
      0.59150000	     -1.76013802	      0.73127427	     -2.43367696	     -0.68826313	      1.03384399	      0.29798104	     26.63334682	      1.59341853	      0.03113100	    -17.82987528	      4.34435236	     -3.51675114	     14.12190248	     -8.02006558	      0.66463609	     -7.03241622	    -27.82232311	     21.12472509	     17.68605270	     11.96743066	    -10.03115897	      0.31291209	     -2.65878555
      0.59566667	     -1.67162307	      0.63911742	     -2.36094804	     -0.68199161	      1.03363756	      0.29851981	     26.54378118	      1.72910500	      0.18246566	    -18.58987622	      4.13629927	     -3.90998841	     13.97646522	     -7.65584629	      0.32540690	     -7.37374920	    -29.51107078	     20.59786629	     18.23804597	     12.62939006	    -10.08670457	      0.47937557	     -2.61780239
      0.59983333	     -1.58979371	      0.55096673	     -2.28845153	     -0.67575234	      1.03345416	      0.29906935	     26.46339324	      1.85830498	      0.31027959	    -19.35780916	      3.98667054	     -4.26209988	     13.79744995	     -7.25267193	     -0.01942235	     -7.68375065	    -31.24160769	     19.99713650	     18.74883454	     13.38467062	    -10.13785093	      0.63935530	     -2.57410553
      0.60400000	     -1.57091067	      0.47717141	     -2.20554450	     -0.66951073	      1.03324418	      0.29957354	     26.45082952	      1.96244718	      0.38713379	    -20.13027331	      3.86884060	     -4.51634054	     12.88015940	     -6.75312695	     -0.34012557	     -7.88134893	    -32.99039903	     19.20453064	     18.99975615	     17.03242610	    -10.09542338	      0.79139954	     -2.50557732
